<?xml version="1.0" encoding="utf-8"?>
<!-- Generator: Adobe Illustrator 24.2.1, SVG Export Plug-In . SVG Version: 6.00 Build 0)  -->
<svg version="1.1" id="Layer_1" xmlns="http://www.w3.org/2000/svg" xmlns:xlink="http://www.w3.org/1999/xlink" x="0px" y="0px"
	 viewBox="0 0 19 19" style="enable-background:new 0 0 19 19;" xml:space="preserve">
<style type="text/css">
	.st0{fill:#39394D;}
</style>
<g>
	<path class="st0" d="M16,2V0.5C16,0.2,15.8,0,15.5,0S15,0.2,15,0.5V2H4V0.5C4,0.2,3.8,0,3.5,0S3,0.2,3,0.5V2H0v17h19V2H16z M18,18
		H1V3h2v0.5C3,3.8,3.2,4,3.5,4S4,3.8,4,3.5V3h11v0.5C15,3.8,15.2,4,15.5,4S16,3.8,16,3.5V3h2V18z"/>
	<rect x="3" y="6" class="st0" width="1" height="1"/>
	<rect x="3" y="9" class="st0" width="1" height="1"/>
	<rect x="3" y="12" class="st0" width="1" height="1"/>
	<rect x="3" y="15" class="st0" width="1" height="1"/>
	<rect x="7" y="6" class="st0" width="1" height="1"/>
	<path class="st0" d="M6,11h3V8H6V11z M7,9h1v1H7V9z"/>
	<rect x="7" y="12" class="st0" width="1" height="1"/>
	<rect x="7" y="15" class="st0" width="1" height="1"/>
	<rect x="11" y="6" class="st0" width="1" height="1"/>
	<rect x="11" y="9" class="st0" width="1" height="1"/>
	<rect x="11" y="12" class="st0" width="1" height="1"/>
	<rect x="11" y="15" class="st0" width="1" height="1"/>
	<rect x="15" y="6" class="st0" width="1" height="1"/>
	<rect x="15" y="9" class="st0" width="1" height="1"/>
	<rect x="15" y="12" class="st0" width="1" height="1"/>
</g>
</svg>
