<?xml version="1.0" encoding="utf-8"?>
<!-- Generator: Adobe Illustrator 24.2.1, SVG Export Plug-In . SVG Version: 6.00 Build 0)  -->
<svg version="1.1" id="Layer_1" xmlns="http://www.w3.org/2000/svg" xmlns:xlink="http://www.w3.org/1999/xlink" x="0px" y="0px"
	 viewBox="0 0 16.3 24" style="enable-background:new 0 0 16.3 24;" xml:space="preserve">
<style type="text/css">
	.st0{fill-rule:evenodd;clip-rule:evenodd;fill:#39394D;}
	.st1{fill:#39394D;}
</style>
<path class="st0" d="M8.2,14.3L8.2,14.3c-1.1,0-2.2-0.4-3-1C3.8,12.2,2.4,9,2.8,6.6c0.2-1.2,1.3-2,2.5-2H11c1.2,0,2.3,0.9,2.5,2
	c0.4,2.4-0.9,5.6-2.4,6.7C10.3,13.9,9.2,14.3,8.2,14.3z M5.3,5.6C4.6,5.6,4,6.1,3.8,6.8c-0.4,2.1,0.9,4.9,2,5.7
	c0.8,0.6,1.7,0.8,2.4,0.8c0.8,0,1.7-0.3,2.3-0.8c1-0.8,2.4-3.6,2-5.7c-0.1-0.7-0.8-1.2-1.5-1.2L5.3,5.6L5.3,5.6z"/>
<path class="st0" d="M13.1,18c2-2.4,4.3-8.2,2.7-12.3c-0.5-1.3-1.5-2.7-3.6-3.5l1-1.4c0.1-0.2,0.1-0.4,0-0.5C13.1,0.1,13,0,12.8,0
	H3.6C3.4,0,3.2,0.1,3.1,0.3C3,0.5,3,0.7,3.2,0.8l1,1.4C2.1,3,1.1,4.5,0.6,5.8C-1,9.8,1,15.5,3.2,18l-2.6,5.2c-0.1,0.3,0,0.6,0.2,0.7
	C0.9,24,0.9,24,1,24c0.2,0,0.4-0.1,0.5-0.3l0.6-1.2h12.1l0.6,1.2c0.1,0.2,0.3,0.3,0.5,0.3c0.1,0,0.2,0,0.2-0.1
	c0.3-0.1,0.4-0.4,0.2-0.7L13.1,18z M4.6,1h7.1l-0.6,0.8c-0.8-0.2-1.8-0.3-2.9-0.3H8.1c-1.1,0-2,0.2-2.9,0.4L4.6,1z M1.5,6.1
	c0.9-2.4,3.2-3.6,6.6-3.6h0.1c3.4,0,5.7,1.2,6.6,3.5c1.6,4-1,9.9-2.9,11.8c-1.1,1-2.5,1.6-3.8,1.6s-2.7-0.6-3.8-1.6
	C2.2,15.7,0,9.9,1.5,6.1z M2.6,21.4l1.3-2.7c1.2,1,2.7,1.6,4.2,1.6l0,0c1.5,0,3-0.6,4.2-1.7l1.4,2.7H2.6V21.4z"/>
<g>
	<path class="st1" d="M5,16.1l-1.1-0.6c-0.2-0.1-0.3-0.4-0.2-0.7s0.4-0.3,0.7-0.2l1.1,0.6c0.2,0.1,0.3,0.4,0.2,0.7S5.3,16.3,5,16.1z
		"/>
	<path class="st1" d="M11.3,16.1l1.1-0.6c0.2-0.1,0.3-0.4,0.2-0.7c-0.1-0.2-0.4-0.3-0.7-0.2l-1.1,0.6c-0.2,0.1-0.3,0.4-0.2,0.7
		C10.8,16.2,11.1,16.3,11.3,16.1z"/>
</g>
</svg>
